<svg xmlns="http://www.w3.org/2000/svg" viewBox="0 0 115.06 8.16">
  <defs>
    <style>.cls-1{fill:#5b5b5b;}</style>
  </defs>
  <title>アセット 3</title>
  <g id="レイヤー_2" data-name="レイヤー 2">
    <g id="レイヤー_1-2" data-name="レイヤー 1">
      <path class="cls-1" d="M6.71,1H3.83c0,.8,0,1.41,0,1.82v1.7c0,.69,0,1.38,0,2.09s0,1.19,0,1.42h-1c0-.23,0-.71,0-1.44V2.8c0-.4,0-1,0-1.85H0V.15H6.71Z"/>
      <path class="cls-1" d="M15.85,7.67l-.91.47s-.14-.34-.37-.87l-.93-2.08H10.17c-.41.91-.73,1.61-.95,2.11s-.35.78-.37.84l-.79-.43c.1-.2.52-1.09,1.26-2.68s1.5-3.26,2.29-5h.76c.79,1.75,1.55,3.45,2.31,5.09ZM13.31,4.44l-.66-1.5-.72-1.63h0c-.2.42-.44,1-.72,1.58s-.5,1.14-.68,1.54h2.8Z"/>
      <path class="cls-1" d="M19.46,8h-1c0-.23,0-.75,0-1.55s0-1.75,0-2.87c0-.46,0-1,0-1.59s0-1.21,0-1.84h1c0,.6,0,1.28,0,2s0,1.41,0,2c0,1.13,0,2,0,2.6S19.45,7.75,19.46,8Zm5.08-.54-.68.65c-.93-.91-1.83-1.76-2.7-2.54L19.67,4.2v0c.25-.24.76-.78,1.56-1.6S22.82.91,23.61.05l.66.59C23.6,1.28,22.91,2,22.2,2.69L20.86,4.07h0L22,5.15Z"/>
      <path class="cls-1" d="M33.65.13c0,.75,0,1.37,0,1.87s0,.91,0,1.28V4.42c0,.31,0,.58,0,.81a3.17,3.17,0,0,1-.21,1.2,2.44,2.44,0,0,1-.61.91,2.88,2.88,0,0,1-1,.6,3.92,3.92,0,0,1-1.38.22A4.17,4.17,0,0,1,29.05,8a3,3,0,0,1-1-.61,2.56,2.56,0,0,1-.61-.91,3.39,3.39,0,0,1-.2-1.2V4.42c0-.32,0-.7,0-1.14s0-.79,0-1.28,0-1.12,0-1.87h1c0,.1,0,.44,0,1v4a2.08,2.08,0,0,0,.62,1.63,2.38,2.38,0,0,0,1.66.55,2.45,2.45,0,0,0,1.71-.52,2.22,2.22,0,0,0,.56-1.66c0-.31,0-.62,0-.92V3.38c0-.93,0-1.69,0-2.28s0-.91,0-1Z"/>
      <path class="cls-1" d="M43.05.52,41.89,2,40.1,4.24c0,.7,0,1.45,0,2.22s0,1.29,0,1.52h-1c0-.23,0-.75,0-1.54s0-1.5,0-2.13c-.47-.63-1.06-1.39-1.77-2.29L36.28.59,37.05,0c.05.07.35.48.92,1.23s1.13,1.5,1.7,2.24h0l1.73-2.23,1-1.24Z"/>
      <path class="cls-1" d="M52.2,7.67l-.92.47s-.14-.34-.37-.87L50,5.19H46.51c-.41.91-.73,1.61-.95,2.11s-.35.78-.37.84l-.79-.43c.1-.2.52-1.09,1.26-2.68S47.16,1.77,48,0h.76C49.5,1.77,50.26,3.47,51,5.11S52.16,7.6,52.2,7.67ZM49.65,4.44,49,2.94l-.72-1.63h0c-.2.42-.44,1-.71,1.58l-.69,1.54h2.8Z"/>
      <path class="cls-1" d="M60,8H59c0-.23,0-.65,0-1.25s0-1.47,0-2.59V2.38q0-1.08,0-2.25h1c0,.56,0,1.21,0,2s0,1.35,0,1.82c0,1.18,0,2.1,0,2.75S60,7.75,60,8Z"/>
      <path class="cls-1" d="M67.88,5.77a2,2,0,0,1-.28,1.06,2.16,2.16,0,0,1-.77.73,3.13,3.13,0,0,1-1,.39,5.46,5.46,0,0,1-1.26.14l-.77,0-.47,0,0-.84.46,0c.25,0,.54,0,.88,0a4.72,4.72,0,0,0,.81-.09A2.53,2.53,0,0,0,66.17,7a1.42,1.42,0,0,0,.53-.41A.93.93,0,0,0,66.89,6a1.09,1.09,0,0,0-.19-.66,1.83,1.83,0,0,0-.61-.53c-.18-.11-.42-.23-.71-.37a6,6,0,0,1-.8-.42,2.43,2.43,0,0,1-.85-.79,1.86,1.86,0,0,1-.25-1,1.74,1.74,0,0,1,.23-.93,2.17,2.17,0,0,1,.6-.68,2.52,2.52,0,0,1,.92-.42,4.49,4.49,0,0,1,1.2-.14c.25,0,.49,0,.74,0l.43,0,.08.85-.43,0q-.37,0-.93,0a3.18,3.18,0,0,0-.67.07,1.84,1.84,0,0,0-.61.23,1.18,1.18,0,0,0-.4.37,1,1,0,0,0-.17.56,1,1,0,0,0,.18.56,2,2,0,0,0,.64.55c.16.09.38.21.64.33s.52.27.78.42a2.63,2.63,0,0,1,.88.79A1.87,1.87,0,0,1,67.88,5.77Z"/>
      <path class="cls-1" d="M77.84,8h-1c0-.23,0-.67,0-1.3s0-1.41,0-2.36H72.14c0,1.09,0,1.91,0,2.47s0,1,0,1.19h-1c0-.23,0-.65,0-1.25s0-1.61,0-3c0-.43,0-1,0-1.57s0-1.28,0-2h1c0,.6,0,1.18,0,1.75s0,1.12,0,1.64h4.75c0-.52,0-1.06,0-1.63s0-1.16,0-1.76h1c0,.59,0,1.28,0,2.05s0,1.4,0,1.89c0,1.15,0,2,0,2.64S77.83,7.75,77.84,8Z"/>
      <path class="cls-1" d="M82.75,8h-1c0-.23,0-.65,0-1.25s0-1.47,0-2.59c0-.45,0-1,0-1.76s0-1.47,0-2.25h1c0,.56,0,1.21,0,2s0,1.35,0,1.82c0,1.18,0,2.1,0,2.75S82.74,7.75,82.75,8Z"/>
      <path class="cls-1" d="M92.49,4c0,.28,0,.61,0,1s0,.68,0,.93,0,.84,0,1.32,0,.76,0,.81l-.35,0-.58,0a9.18,9.18,0,0,1-2.47-.3,4.3,4.3,0,0,1-1.85-1,3.26,3.26,0,0,1-.78-1.13A3.83,3.83,0,0,1,86.15,4a3.4,3.4,0,0,1,.56-1.91A4.12,4.12,0,0,1,88.27.77,5.75,5.75,0,0,1,89.8.24,8.76,8.76,0,0,1,91.59.06h.5l.07.85h-.45a8.25,8.25,0,0,0-1.64.15,5.59,5.59,0,0,0-1.31.45,3,3,0,0,0-1.18,1.09,2.65,2.65,0,0,0-.43,1.46,2.76,2.76,0,0,0,.44,1.62,3.12,3.12,0,0,0,1.16,1,5,5,0,0,0,1.34.46,7.77,7.77,0,0,0,1.46.13V6.35q0-.82,0-2.4Z"/>
      <path class="cls-1" d="M102.67,7.67l-.91.47s-.14-.34-.38-.87-.54-1.24-.92-2.08H97L96,7.3l-.37.84-.78-.43c.1-.2.52-1.09,1.26-2.68s1.5-3.26,2.29-5h.76q1.17,2.63,2.3,5.09Zm-2.54-3.23-.66-1.5-.72-1.63h0L98,2.9l-.69,1.54h2.81Z"/>
      <path class="cls-1" d="M106.27,8h-1c0-.23,0-.75,0-1.55s0-1.75,0-2.87c0-.46,0-1,0-1.59s0-1.21,0-1.84h1c0,.6,0,1.28,0,2s0,1.41,0,2c0,1.13,0,2,0,2.6S106.27,7.75,106.27,8Zm5.08-.54-.67.65c-.93-.91-1.83-1.76-2.7-2.54L106.49,4.2v0l1.56-1.6c.79-.83,1.59-1.67,2.38-2.53l.66.59c-.67.64-1.36,1.33-2.07,2.05l-1.34,1.38h0l1.16,1.07Z"/>
      <path class="cls-1" d="M115.06,8h-1c0-.23,0-.65,0-1.25s0-1.47,0-2.59c0-.45,0-1,0-1.76s0-1.47,0-2.25h1c0,.56,0,1.21,0,2s0,1.35,0,1.82c0,1.18,0,2.1,0,2.75S115.05,7.75,115.06,8Z"/>
    </g>
  </g>
</svg>